<svg xmlns="http://www.w3.org/2000/svg" width="96" height="96" viewBox="0 0 96 96" role="img" aria-label="Temporary generated dinosaur silhouette placeholder">
  <title>Temporary generated dinosaur silhouette placeholder</title>
  <desc>Flat silhouette block-in for pipeline testing only. Replace with final pixel art later.</desc>
  <ellipse cx="48" cy="78" rx="30" ry="7" fill="#00000033"/><path d="M23 55h35c12 0 20 8 21 18H30c-10 0-17-6-17-14 0-5 4-8 10-4Z" fill="#243126"/><path d="M61 42l21 8-6 21-25-5-1-17Z" fill="#243126"/><path d="M75 38l18-7-9 16Z" fill="#243126"/><path d="M73 47l19-2-17 7Z" fill="#243126"/><path d="M67 51l12-12-2 18Z" fill="#243126"/><rect x="29" y="70" width="7" height="12" fill="#243126"/><rect x="55" y="70" width="7" height="12" fill="#243126"/><path d="M18 57 6 52l14 2Z" fill="#243126"/><path d="M43 56h20" stroke="#d59a3a" stroke-width="3" stroke-linecap="round" opacity=".45"/>
</svg>
